{
  "title": "Japanese Teens in Sex Orgy (Uncensored hardcore)",
  "uid": 10824015,
  "size": 191899818,
  "categoryP": "porn",
  "categoryS": "movie_clips",
  "magnet": "?xt=urn:btih:19b41a71139d7d9f8e624cf12727adf346529864&amp;dn=Japanese+Teens+in+Sex+Orgy+%28Uncensored+hardcore%29&amp;tr=udp%3A%2F%2Ftracker.openbittorrent.com%3A80&amp;tr=udp%3A%2F%2Fopen.demonii.com%3A1337&amp;tr=udp%3A%2F%2Ftracker.coppersurfer.tk%3A6969&amp;tr=udp%3A%2F%2Fexodus.desync.com%3A6969",
  "seeders": 65,
  "leechers": 12,
  "uploader": "ThousandPeers",
  "files": -1,
  "time": 1408564356,
  "description": "Format                                   : AVI\nFormat/Info                              : Audio Video Interleave\nFile size                                : 183 MiB\nDuration                                 : 15mn 27s\nOverall bit rate                         : 1 653 Kbps\nWriting library                          : VirtualDub build 18160/release\n\nVideo\nID                                       : 0\nFormat                                   : MPEG-4 Visual\nFormat settings, BVOP                    : Yes\nFormat settings, QPel                    : No\nFormat settings, GMC                     : No warppoints\nFormat settings, Matrix                  : Default (H.263)\nCodec ID                                 : DX50\nCodec ID/Hint                            : DivX 5\nDuration                                 : 15mn 27s\nBit rate                                 : 1 514 Kbps\nWidth                                    : 640 pixels\nHeight                                   : 480 pixels\nDisplay aspect ratio                     : 4:3\nFrame rate                               : 29.970 fps\nColor space                              : YUV\nChroma subsampling                       : 4:2:0\nBit depth                                : 8 bits\nScan type                                : Progressive\nCompression mode                         : Lossy\nBits/(Pixel*Frame)                       : 0.164\nStream size                              : 167 MiB (92%)\nWriting library                          : DivX 5.0.3 (UTC 2003-01-24)\n\nAudio\nID                                       : 1\nFormat                                   : MPEG Audio\nFormat version                           : Version 1\nFormat profile                           : Layer 3\nMode                                     : Joint stereo\nMode extension                           : MS Stereo\nCodec ID                                 : 55\nCodec ID/Hint                            : MP3\nDuration                                 : 15mn 27s\nBit rate mode                            : Constant\nBit rate                                 : 128 Kbps\nChannel(s)                               : 2 channels\nSampling rate                            : 44.1 KHz\nCompression mode                         : Lossy\nDelay relative to video                  : 19ms\nStream size                              : 14.1 MiB (8%)\nAlignment                                : Split accross interleaves\nInterleave, duration                     : 33 ms (1.00 video frame)\nInterleave, preload duration             : 500 ms\n",
  "parsed": {
    "xt": "urn:btih:19b41a71139d7d9f8e624cf12727adf346529864",
    "dn": "Japanese Teens in Sex Orgy (Uncensored hardcore)",
    "tr": [
      "udp://exodus.desync.com:6969",
      "udp://open.demonii.com:1337",
      "udp://tracker.coppersurfer.tk:6969",
      "udp://tracker.openbittorrent.com:80"
    ],
    "infoHash": "19b41a71139d7d9f8e624cf12727adf346529864",
    "infoHashBuffer": {
      "type": "Buffer",
      "data": [
        25,
        180,
        26,
        113,
        19,
        157,
        125,
        159,
        142,
        98,
        76,
        241,
        39,
        39,
        173,
        243,
        70,
        82,
        152,
        100
      ]
    },
    "name": "Japanese Teens in Sex Orgy (Uncensored hardcore)",
    "announce": [
      "udp://exodus.desync.com:6969",
      "udp://open.demonii.com:1337",
      "udp://tracker.coppersurfer.tk:6969",
      "udp://tracker.openbittorrent.com:80"
    ],
    "urlList": []
  },
  "previous": 53,
  "peers": 51,
  "last_updated": "2016-12-26T17:42:25.271Z"
}